<?xml version="1.0" encoding="UTF-8"?>
<svg id="Layer_1" data-name="Layer 1" xmlns="http://www.w3.org/2000/svg" width="346.78" height="60.88" viewBox="0 0 346.78 60.88">
  <defs>
    <style>
      .cls-1 {
        fill: #a3bb86;
      }

      .cls-2 {
        fill: #a4bd86;
      }
    </style>
  </defs>
  <g>
    <path class="cls-1" d="M78.93,15.33c0-1.16.22-2.3.66-3.42.44-1.12,1.08-2.13,1.92-3.04.84-.91,1.86-1.64,3.07-2.19,1.21-.55,2.57-.82,4.09-.82,1.82,0,3.42.38,4.78,1.14,1.36.76,2.37,1.77,3.03,3.02l-4,2.84c-.23-.63-.57-1.11-1.01-1.45-.44-.34-.91-.58-1.42-.71-.51-.13-1.01-.2-1.49-.2-.75,0-1.4.15-1.94.44-.55.29-.99.68-1.34,1.17-.35.48-.61,1.02-.78,1.61-.17.59-.25,1.18-.25,1.77,0,.66.1,1.3.29,1.9.2.61.48,1.15.86,1.62.38.47.84.84,1.38,1.11s1.16.4,1.84.4c.48,0,.97-.08,1.47-.23.5-.15.96-.4,1.37-.74.41-.34.72-.8.94-1.37l4.27,2.55c-.38.93-1,1.73-1.88,2.39-.88.66-1.87,1.17-2.98,1.52-1.11.35-2.21.52-3.3.52-1.41,0-2.71-.28-3.88-.84-1.17-.56-2.18-1.31-3.03-2.25-.85-.94-1.51-1.99-1.97-3.17-.47-1.17-.7-2.37-.7-3.58Z"/>
    <path class="cls-1" d="M112.02,25.17c-1.52,0-2.83-.25-3.92-.75-1.09-.5-1.98-1.19-2.67-2.06s-1.19-1.88-1.51-3.01-.48-2.33-.48-3.58V5.99h5.23v9.77c0,.62.06,1.22.19,1.79.13.57.32,1.08.59,1.53s.61.8,1.03,1.06c.42.26.93.39,1.54.39s1.15-.13,1.58-.39c.43-.26.77-.62,1.03-1.07.26-.46.45-.97.58-1.54.12-.57.19-1.16.19-1.77V5.99h5.23v9.78c0,1.32-.17,2.55-.52,3.7-.35,1.14-.87,2.14-1.57,3-.7.86-1.59,1.52-2.67,2-1.08.47-2.37.71-3.85.71Z"/>
    <path class="cls-1" d="M129.16,25.04V5.99h8.74c.93,0,1.79.19,2.58.56.79.38,1.47.88,2.04,1.51.57.64,1.02,1.35,1.33,2.13.31.79.47,1.58.47,2.39,0,.73-.11,1.44-.32,2.12s-.53,1.3-.94,1.86c-.41.56-.9,1.05-1.47,1.46l4.02,7h-5.74l-3.35-5.85h-2.12v5.85h-5.23ZM134.39,14.63h3.3c.21,0,.42-.08.62-.24.2-.16.36-.39.5-.7.13-.3.2-.67.2-1.1s-.08-.82-.23-1.11c-.15-.29-.34-.52-.56-.68-.22-.16-.44-.24-.66-.24h-3.17v4.08Z"/>
    <path class="cls-1" d="M168.84,20.16c0,1.15-.31,2.07-.92,2.79-.62.72-1.45,1.24-2.48,1.58-1.04.34-2.18.51-3.43.51h-9.36V5.99h11.05c.89,0,1.67.24,2.32.71.65.47,1.15,1.09,1.5,1.84s.52,1.53.52,2.33c0,.88-.23,1.73-.68,2.55-.46.82-1.14,1.44-2.05,1.85,1.09.32,1.95.88,2.59,1.69.64.8.95,1.87.95,3.19ZM157.87,10.45v2.92h3.57c.23,0,.46-.04.67-.12.21-.08.39-.23.54-.44s.21-.52.21-.91c0-.36-.06-.64-.17-.84s-.27-.36-.46-.46c-.19-.1-.4-.15-.63-.15h-3.73ZM163.53,19.08c0-.32-.06-.6-.17-.84-.12-.24-.27-.43-.47-.58-.2-.14-.43-.21-.7-.21h-4.32v3.19h4.13c.29,0,.54-.06.78-.19.23-.13.42-.3.55-.54.13-.23.2-.51.2-.83Z"/>
    <path class="cls-1" d="M188.08,12.24c-.61-.36-1.16-.65-1.66-.87-.5-.22-1.05-.42-1.64-.6-.59-.18-1.17-.27-1.74-.27-.45,0-.81.07-1.1.21s-.43.38-.43.72c0,.32.14.58.43.77s.69.37,1.22.53c.53.16,1.16.36,1.89.59,1.18.35,2.2.76,3.06,1.22s1.52,1.05,1.98,1.77c.46.72.7,1.67.7,2.86s-.21,2.09-.62,2.86c-.41.77-.96,1.39-1.66,1.85-.7.46-1.47.79-2.33,1-.86.2-1.74.3-2.63.3s-1.86-.09-2.86-.28c-.99-.19-1.95-.45-2.88-.78-.93-.33-1.78-.72-2.55-1.17l2.25-4.59c.71.43,1.37.78,1.96,1.05s1.25.51,1.97.72,1.45.32,2.19.32c.57,0,.97-.07,1.19-.22.22-.15.34-.34.34-.58,0-.37-.2-.66-.59-.87-.39-.2-.91-.4-1.54-.59-.64-.19-1.34-.4-2.11-.65-1.11-.37-2.02-.8-2.74-1.27-.72-.47-1.24-1.03-1.58-1.68-.34-.65-.51-1.43-.51-2.36,0-1.4.33-2.58.99-3.52s1.53-1.66,2.62-2.14c1.08-.49,2.25-.73,3.5-.73.93,0,1.83.11,2.7.34.87.22,1.68.5,2.44.82.76.32,1.43.63,2,.91l-2.25,4.32Z"/>
    <path class="cls-1" d="M198.61,25.04V5.99h5.23v19.05h-5.23Z"/>
    <path class="cls-1" d="M212.59,25.04V5.99h7.32c2.11,0,3.88.42,5.3,1.27,1.42.85,2.49,1.99,3.22,3.43.72,1.44,1.09,3.04,1.09,4.79,0,1.93-.4,3.61-1.19,5.04s-1.91,2.54-3.35,3.33c-1.44.79-3.13,1.18-5.06,1.18h-7.32ZM224.2,15.49c0-.98-.17-1.85-.51-2.59s-.83-1.32-1.47-1.73c-.64-.41-1.41-.62-2.31-.62h-2.09v9.93h2.09c.91,0,1.69-.21,2.32-.64.63-.43,1.12-1.02,1.46-1.78.34-.76.51-1.61.51-2.56Z"/>
    <path class="cls-1" d="M250.81,20.48v4.56h-13.57V5.99h13.33v4.56h-8.1v2.68h6.92v4.24h-6.92v3h8.34Z"/>
    <path class="cls-1" d="M78.93,45c0-1.16.22-2.3.66-3.42.44-1.12,1.08-2.13,1.92-3.04.84-.91,1.86-1.64,3.07-2.19,1.21-.55,2.57-.82,4.09-.82,1.82,0,3.42.38,4.78,1.14,1.36.76,2.37,1.77,3.03,3.02l-4,2.84c-.23-.63-.57-1.11-1.01-1.45-.44-.34-.91-.58-1.42-.71-.51-.13-1.01-.2-1.49-.2-.75,0-1.4.15-1.94.44-.55.29-.99.68-1.34,1.17-.35.48-.61,1.02-.78,1.61-.17.59-.25,1.18-.25,1.77,0,.66.1,1.3.29,1.9.2.61.48,1.15.86,1.62.38.47.84.84,1.38,1.11s1.16.4,1.84.4c.48,0,.97-.08,1.47-.23.5-.15.96-.4,1.37-.74.41-.34.72-.8.94-1.37l4.27,2.55c-.38.93-1,1.73-1.88,2.39-.88.66-1.87,1.17-2.98,1.52-1.11.35-2.21.52-3.3.52-1.41,0-2.71-.28-3.88-.84-1.17-.56-2.18-1.31-3.03-2.25-.85-.94-1.51-1.99-1.97-3.17-.47-1.17-.7-2.37-.7-3.58Z"/>
    <path class="cls-1" d="M112.07,54.84c-1.45,0-2.76-.27-3.94-.82-1.18-.54-2.2-1.28-3.04-2.2-.85-.92-1.5-1.96-1.96-3.11-.46-1.15-.68-2.35-.68-3.58s.24-2.48.72-3.62c.48-1.14,1.16-2.17,2.02-3.07s1.9-1.61,3.09-2.13c1.19-.52,2.49-.78,3.9-.78s2.76.27,3.94.82c1.18.55,2.19,1.28,3.03,2.21.84.93,1.49,1.97,1.94,3.13.46,1.15.68,2.34.68,3.55s-.24,2.45-.71,3.59c-.47,1.15-1.15,2.17-2.01,3.07-.87.9-1.89,1.62-3.07,2.15-1.18.53-2.49.79-3.92.79ZM107.75,45.18c0,.64.09,1.27.27,1.86s.45,1.14.8,1.61.81.85,1.35,1.13c.54.28,1.19.42,1.94.42s1.4-.14,1.96-.43,1.01-.68,1.35-1.17c.35-.49.61-1.04.78-1.64.17-.6.25-1.21.25-1.84s-.09-1.26-.27-1.85-.45-1.12-.8-1.6-.81-.84-1.37-1.11-1.2-.4-1.93-.4-1.4.14-1.94.43c-.55.29-1,.67-1.35,1.14s-.62,1.01-.79,1.61c-.17.6-.25,1.21-.25,1.84Z"/>
    <path class="cls-1" d="M143.82,54.71v-10.03l-3.19,7.06h-2.79l-3.19-7.06v10.03h-5.23v-19.05h5.71l4.1,8.96,4.13-8.96h5.69v19.05h-5.23Z"/>
    <path class="cls-1" d="M157.81,54.71v-19.05h8.21c.93,0,1.79.19,2.58.56.79.38,1.47.88,2.04,1.51.57.64,1.01,1.35,1.33,2.13.31.79.47,1.58.47,2.39,0,1.13-.26,2.19-.79,3.19-.53,1-1.26,1.82-2.2,2.45-.94.64-2.03.95-3.29.95h-3.11v5.85h-5.23ZM163.04,44.3h2.76c.21,0,.42-.06.62-.19.2-.13.36-.34.5-.64.13-.3.2-.71.2-1.21,0-.54-.08-.95-.23-1.25-.15-.29-.34-.5-.56-.62-.22-.12-.44-.17-.66-.17h-2.63v4.08Z"/>
    <path class="cls-1" d="M188.42,54.84c-1.45,0-2.76-.27-3.94-.82-1.18-.54-2.2-1.28-3.04-2.2-.85-.92-1.5-1.96-1.96-3.11-.46-1.15-.68-2.35-.68-3.58s.24-2.48.72-3.62c.48-1.14,1.16-2.17,2.02-3.07s1.9-1.61,3.09-2.13c1.19-.52,2.49-.78,3.9-.78s2.76.27,3.94.82c1.18.55,2.19,1.28,3.03,2.21.84.93,1.49,1.97,1.94,3.13.46,1.15.68,2.34.68,3.55s-.24,2.45-.71,3.59c-.47,1.15-1.15,2.17-2.01,3.07-.87.9-1.89,1.62-3.07,2.15-1.18.53-2.49.79-3.92.79ZM184.1,45.18c0,.64.09,1.27.27,1.86s.45,1.14.8,1.61.81.85,1.35,1.13c.54.28,1.19.42,1.94.42s1.4-.14,1.96-.43,1.01-.68,1.35-1.17c.35-.49.61-1.04.78-1.64.17-.6.25-1.21.25-1.84s-.09-1.26-.27-1.85-.45-1.12-.8-1.6-.81-.84-1.37-1.11-1.2-.4-1.93-.4-1.4.14-1.94.43c-.55.29-1,.67-1.35,1.14s-.62,1.01-.79,1.61c-.17.6-.25,1.21-.25,1.84Z"/>
    <path class="cls-1" d="M217.07,41.91c-.61-.36-1.16-.65-1.66-.87-.5-.22-1.05-.42-1.64-.6-.59-.18-1.17-.27-1.74-.27-.45,0-.81.07-1.1.21s-.43.38-.43.72c0,.32.14.58.43.77s.69.37,1.22.53c.53.16,1.16.36,1.89.59,1.18.35,2.2.76,3.06,1.22s1.52,1.05,1.98,1.77c.46.72.7,1.67.7,2.86s-.21,2.09-.62,2.86c-.41.77-.96,1.39-1.66,1.85-.7.46-1.47.79-2.33,1-.86.2-1.74.3-2.63.3s-1.86-.09-2.86-.28c-.99-.19-1.95-.45-2.88-.78-.93-.33-1.78-.72-2.55-1.17l2.25-4.59c.71.43,1.37.78,1.96,1.05s1.25.51,1.97.72,1.45.32,2.19.32c.57,0,.97-.07,1.19-.22.22-.15.34-.34.34-.58,0-.37-.2-.66-.59-.87-.39-.2-.91-.4-1.54-.59-.64-.19-1.34-.4-2.11-.65-1.11-.37-2.02-.8-2.74-1.27-.72-.47-1.24-1.03-1.58-1.68-.34-.65-.51-1.43-.51-2.36,0-1.4.33-2.58.99-3.52s1.53-1.66,2.62-2.14c1.08-.49,2.25-.73,3.5-.73.93,0,1.83.11,2.7.34.87.22,1.68.5,2.44.82.76.32,1.43.63,2,.91l-2.25,4.32Z"/>
    <path class="cls-1" d="M242.14,40.22h-5.47v14.49h-5.23v-14.49h-5.5v-4.56h16.2v4.56Z"/>
    <path class="cls-1" d="M259.76,45c0-1.16.22-2.3.66-3.42.44-1.12,1.08-2.13,1.92-3.04.84-.91,1.86-1.64,3.07-2.19,1.21-.55,2.57-.82,4.09-.82,1.82,0,3.42.38,4.78,1.14,1.36.76,2.37,1.77,3.03,3.02l-4,2.84c-.23-.63-.57-1.11-1.01-1.45-.44-.34-.91-.58-1.42-.71-.51-.13-1.01-.2-1.49-.2-.75,0-1.4.15-1.94.44-.55.29-.99.68-1.34,1.17-.35.48-.61,1.02-.78,1.61-.17.59-.25,1.18-.25,1.77,0,.66.1,1.3.29,1.9.2.61.48,1.15.86,1.62.38.47.84.84,1.38,1.11s1.16.4,1.84.4c.48,0,.97-.08,1.47-.23.5-.15.96-.4,1.37-.74.41-.34.72-.8.94-1.37l4.27,2.55c-.38.93-1,1.73-1.88,2.39-.88.66-1.87,1.17-2.98,1.52-1.11.35-2.21.52-3.3.52-1.41,0-2.71-.28-3.88-.84-1.17-.56-2.18-1.31-3.03-2.25-.85-.94-1.51-1.99-1.97-3.17-.47-1.17-.7-2.37-.7-3.58Z"/>
    <path class="cls-1" d="M284.69,54.71v-19.05h5.23v14.49h8.64v4.56h-13.87Z"/>
    <path class="cls-1" d="M313.45,54.84c-1.52,0-2.83-.25-3.92-.75-1.09-.5-1.98-1.19-2.67-2.06s-1.19-1.88-1.51-3.01-.48-2.33-.48-3.58v-9.78h5.23v9.77c0,.62.06,1.22.19,1.79.13.57.32,1.08.59,1.53s.61.8,1.03,1.06c.42.26.93.39,1.54.39s1.15-.13,1.58-.39c.43-.26.77-.62,1.03-1.07.26-.46.45-.97.58-1.54.12-.57.19-1.16.19-1.77v-9.77h5.23v9.78c0,1.32-.17,2.55-.52,3.7-.35,1.14-.87,2.14-1.57,3-.7.86-1.59,1.52-2.67,2-1.08.47-2.37.71-3.85.71Z"/>
    <path class="cls-1" d="M346.78,49.83c0,1.15-.31,2.07-.92,2.79-.62.72-1.45,1.24-2.48,1.58-1.04.34-2.18.51-3.43.51h-9.36v-19.05h11.05c.89,0,1.67.24,2.32.71.65.47,1.15,1.09,1.5,1.84s.52,1.53.52,2.33c0,.88-.23,1.73-.68,2.55-.46.82-1.14,1.44-2.05,1.85,1.09.32,1.95.88,2.59,1.69.64.8.95,1.87.95,3.19ZM335.81,40.11v2.92h3.57c.23,0,.46-.04.67-.12.21-.08.39-.23.54-.44s.21-.52.21-.91c0-.36-.06-.64-.17-.84s-.27-.36-.46-.46c-.19-.1-.4-.15-.63-.15h-3.73ZM341.47,48.75c0-.32-.06-.6-.17-.84-.12-.24-.27-.43-.47-.58-.2-.14-.43-.21-.7-.21h-4.32v3.19h4.13c.29,0,.54-.06.78-.19.23-.13.42-.3.55-.54.13-.23.2-.51.2-.83Z"/>
  </g>
  <g>
    <path class="cls-2" d="M30.31,60.78C13.6,60.78,0,47.18,0,30.47S13.6.15,30.31.15s30.31,13.6,30.31,30.31-13.6,30.31-30.31,30.31ZM30.31,4.23C15.85,4.23,4.08,16,4.08,30.47s11.77,26.23,26.23,26.23,26.23-11.77,26.23-26.23S44.78,4.23,30.31,4.23Z"/>
    <g>
      <path class="cls-2" d="M33.18,26.04c-.7,1.53-1.69,2.94-2.67,4.1-1.7-2.12-3.47-5.1-3.44-8.03.04-2.93,1.87-5.85,3.64-7.94.94,1.16,1.87,2.58,2.54,4.1h4.36c-1.78-5.69-6.82-9.89-6.82-9.89,0,0-7.69,6.07-7.79,13.68-.1,7.61,7.44,13.87,7.44,13.87,0,0,5.24-4.15,7.12-9.89h-4.38Z"/>
      <path class="cls-2" d="M22.94,38.11c.58,1.58.89,3.27,1.01,4.78-2.71-.3-6.07-1.15-8.11-3.25-2.04-2.1-2.82-5.46-3.04-8.19,1.48.16,3.15.5,4.69,1.1l3.08-3.08c-5.29-2.77-11.82-2.17-11.82-2.17,0,0-1.14,9.73,4.17,15.18,5.31,5.45,15.07,4.55,15.07,4.55,0,0,.77-6.65-1.96-12.03l-3.1,3.1Z"/>
      <path class="cls-2" d="M41.43,41.76c-1.56.62-3.25.97-4.76,1.13.23-2.71,1-6.09,3.05-8.19,2.05-2.1,5.39-2.95,8.11-3.24-.12,1.49-.42,3.16-.99,4.72l3.16,3.01c2.64-5.35,1.88-11.87,1.88-11.87,0,0-9.76-.9-15.07,4.54-5.32,5.45-4.18,15.18-4.18,15.18,0,0,6.66.61,11.98-2.25l-3.17-3.02Z"/>
    </g>
  </g>
</svg>
