<?xml version="1.0" encoding="UTF-8"?>
<svg id="Layer_1" data-name="Layer 1" xmlns="http://www.w3.org/2000/svg" width="941.05" height="837.21" viewBox="0 0 941.05 837.21">
  <defs>
    <style>
      .cls-1 {
        fill: #a2ba85;
      }
    </style>
  </defs>
  <g>
    <path class="cls-1" d="M226.64,274.73c-3.2-2.38-5.9-5.33-8.11-8.84-2.2-3.51-3.68-7.34-4.42-11.48-.74-4.14-.65-8.43.28-12.87.93-4.43,2.96-8.76,6.11-13,3.77-5.07,8.08-8.68,12.93-10.85,4.86-2.16,9.68-2.87,14.48-2.13l-.35,16.82c-1.65-.46-3.19-.59-4.63-.4-1.44.19-2.77.6-3.99,1.22-1.23.62-2.33,1.38-3.32,2.29-.98.91-1.84,1.86-2.57,2.85-1.54,2.07-2.46,4.15-2.77,6.26-.3,2.11-.16,4.12.44,6.05.59,1.93,1.53,3.74,2.83,5.44s2.76,3.14,4.39,4.35c1.82,1.36,3.77,2.39,5.84,3.09,2.08.71,4.14,1.01,6.19.93,2.05-.08,4.01-.59,5.89-1.52,1.87-.93,3.51-2.34,4.91-4.2.73-.98,1.37-2.08,1.92-3.27.55-1.2.92-2.47,1.11-3.82.2-1.34.17-2.7-.07-4.07-.24-1.36-.8-2.71-1.64-4.03l15.74-6.52c1.33,2.21,2.17,4.69,2.5,7.42.34,2.73.26,5.51-.22,8.32-.49,2.81-1.33,5.58-2.52,8.33-1.2,2.74-2.62,5.22-4.27,7.43-2.89,3.89-6.31,6.87-10.26,8.94-3.95,2.07-8.07,3.32-12.36,3.76-4.3.44-8.55.09-12.75-1.05-4.2-1.14-7.97-2.94-11.32-5.43Z"/>
    <path class="cls-1" d="M327.59,216.33c-4.07,2.86-8.3,4.67-12.7,5.44-4.4.78-8.68.73-12.82-.14-4.14-.87-8.01-2.48-11.61-4.82-3.6-2.34-6.61-5.25-9.05-8.71-2.47-3.51-4.18-7.37-5.12-11.58-.94-4.21-1.07-8.42-.39-12.61.69-4.19,2.18-8.2,4.47-12.03,2.29-3.82,5.42-7.13,9.38-9.92,4.06-2.86,8.29-4.68,12.7-5.45,4.41-.77,8.69-.71,12.85.18,4.16.9,8.02,2.53,11.6,4.89,3.58,2.36,6.56,5.25,8.96,8.66,2.47,3.51,4.17,7.36,5.09,11.55.92,4.19,1.05,8.37.39,12.55-.66,4.18-2.13,8.19-4.4,12.05-2.28,3.85-5.39,7.17-9.35,9.96ZM296.42,197.77c1.27,1.81,2.75,3.37,4.43,4.7,1.69,1.33,3.49,2.29,5.41,2.89,1.92.6,3.93.76,6.03.49,2.09-.27,4.2-1.15,6.3-2.64,2.11-1.48,3.65-3.18,4.62-5.11.97-1.92,1.48-3.89,1.52-5.91.05-2.02-.3-4.05-1.02-6.09-.73-2.04-1.7-3.94-2.94-5.7-1.27-1.8-2.75-3.37-4.43-4.7-1.69-1.33-3.49-2.27-5.42-2.83-1.92-.55-3.93-.68-6.01-.38-2.08.3-4.14,1.17-6.2,2.62-2.11,1.49-3.64,3.17-4.61,5.04-.97,1.88-1.48,3.84-1.55,5.87-.07,2.03.25,4.06.96,6.07.71,2.02,1.68,3.9,2.91,5.66Z"/>
    <path class="cls-1" d="M421.37,174.76l-8.96-33.23-4.27,26.21-9.24,2.49-16.87-20.51,8.96,33.22-17.32,4.67-17.01-63.06,18.92-5.1,21.59,26,5.68-33.36,18.82-5.08,17.01,63.06-17.32,4.68Z"/>
    <path class="cls-1" d="M464.09,169.32l4.35-65.18,28.09,1.87c3.18.22,6.07,1.07,8.68,2.56,2.61,1.5,4.8,3.37,6.59,5.61,1.78,2.24,3.14,4.76,4.06,7.56.92,2.8,1.29,5.57,1.11,8.32-.2,2.88-.9,5.64-2.12,8.3s-2.84,4.97-4.84,6.96c-2,1.99-4.38,3.52-7.13,4.6-2.74,1.08-5.71,1.51-8.89,1.3l-10.65-.71-1.34,20.01-17.89-1.19ZM484.36,134.89l9.46.63c1.1.07,2.16-.37,3.18-1.31,1.02-.95,1.61-2.74,1.79-5.37.18-2.69-.24-4.56-1.28-5.62-1.04-1.05-2.1-1.61-3.21-1.69l-9-.6-.93,13.95Z"/>
    <path class="cls-1" d="M561.77,188.22c-4.62-1.82-8.46-4.35-11.54-7.61-3.07-3.25-5.38-6.85-6.92-10.79-1.55-3.94-2.33-8.05-2.35-12.34-.03-4.29.74-8.41,2.29-12.35,1.57-3.99,3.87-7.54,6.87-10.64,3-3.1,6.44-5.52,10.32-7.25,3.88-1.73,8.05-2.7,12.51-2.88,4.46-.19,8.94.6,13.45,2.38,4.62,1.82,8.47,4.36,11.54,7.61,3.07,3.25,5.37,6.86,6.91,10.83,1.53,3.97,2.3,8.09,2.29,12.38,0,4.28-.77,8.36-2.3,12.25-1.57,3.99-3.86,7.52-6.85,10.6-2.99,3.07-6.41,5.48-10.26,7.23-3.85,1.75-8.01,2.73-12.48,2.95-4.47.22-8.96-.57-13.47-2.34ZM560.13,151.98c-.81,2.05-1.31,4.15-1.49,6.28-.18,2.13,0,4.17.56,6.1.56,1.94,1.52,3.7,2.91,5.3,1.38,1.6,3.27,2.87,5.67,3.82,2.39.94,4.66,1.29,6.81,1.05s4.06-.9,5.77-1.98c1.71-1.07,3.21-2.47,4.52-4.2,1.3-1.72,2.35-3.59,3.14-5.59.81-2.05,1.3-4.15,1.49-6.29.18-2.13-.02-4.16-.62-6.07-.6-1.92-1.59-3.66-2.98-5.23-1.4-1.57-3.27-2.82-5.6-3.74-2.39-.94-4.64-1.3-6.74-1.07-2.1.23-4.02.87-5.76,1.94-1.73,1.06-3.25,2.44-4.54,4.14-1.3,1.7-2.34,3.55-3.12,5.55Z"/>
    <path class="cls-1" d="M668.63,202.73c-.73-2.02-1.59-3.98-2.56-5.88-.82-1.62-1.82-3.32-3.01-5.12-1.19-1.8-2.54-3.32-4.06-4.55-1.24-1.01-2.38-1.62-3.43-1.84-1.05-.22-1.94.12-2.67,1.02-.54.67-.77,1.39-.7,2.17s.38,1.67.9,2.69c.51,1.02,1.22,2.17,2.11,3.45.9,1.28,1.89,2.76,2.97,4.44,1.74,2.61,3.21,5.11,4.39,7.5,1.18,2.39,1.96,4.7,2.34,6.95s.25,4.5-.4,6.74c-.64,2.25-1.93,4.55-3.87,6.93-2.48,3.04-5.12,5.14-7.92,6.3-2.81,1.16-5.62,1.61-8.46,1.35-2.84-.25-5.63-1.05-8.38-2.38-2.76-1.33-5.29-2.95-7.62-4.85-1.86-1.51-3.64-3.2-5.36-5.08s-3.33-3.85-4.82-5.95c-1.5-2.09-2.85-4.22-4.05-6.39-1.2-2.17-2.2-4.32-2.98-6.46l15.93-7.31c.81,2.4,1.79,4.74,2.94,7.02.94,1.95,2.14,4,3.6,6.14,1.46,2.14,3.19,4.02,5.18,5.65,1.53,1.24,2.74,1.9,3.67,1.98.92.08,1.66-.21,2.2-.88.58-.72.78-1.56.59-2.55-.18-.98-.65-2.09-1.38-3.32-.74-1.24-1.63-2.59-2.67-4.08-1.04-1.48-2.11-3.11-3.21-4.87-1.61-2.58-2.88-4.97-3.77-7.17-.9-2.2-1.42-4.28-1.56-6.25-.14-1.97.13-3.87.79-5.7.66-1.83,1.75-3.68,3.26-5.53,2.29-2.8,4.81-4.86,7.58-6.16s5.61-1.96,8.53-1.95c2.92,0,5.81.57,8.67,1.67,2.86,1.11,5.55,2.68,8.07,4.74,1.85,1.51,3.52,3.16,4.98,4.95,1.47,1.79,2.8,3.63,4,5.51,1.19,1.89,2.24,3.73,3.15,5.53.9,1.8,1.7,3.45,2.37,4.95l-15.35,6.6Z"/>
    <path class="cls-1" d="M732.11,272.53l-10.65-15.45-40.91,28.18-10.17-14.77,40.91-28.18-10.7-15.53,12.88-8.88,31.53,45.76-12.88,8.87Z"/>
    <path class="cls-1" d="M744.49,345.45c3.94-.63,7.93-.51,11.99.37,4.05.88,7.82,2.5,11.3,4.86,3.48,2.36,6.48,5.42,9.01,9.18,2.52,3.76,4.2,8.25,5.04,13.45,1,6.24.57,11.85-1.27,16.83-1.85,4.99-4.71,8.93-8.59,11.85l-11.79-12c1.48-.86,2.65-1.87,3.52-3.04.87-1.16,1.51-2.4,1.92-3.71.41-1.31.64-2.63.67-3.97.03-1.34-.05-2.62-.24-3.83-.4-2.55-1.25-4.66-2.55-6.35-1.3-1.69-2.84-3-4.63-3.92s-3.75-1.51-5.87-1.77-4.18-.22-6.17.1c-2.24.35-4.34,1.03-6.29,2.03-1.96,1-3.62,2.26-4.99,3.78-1.37,1.52-2.38,3.28-3.02,5.28-.65,1.99-.78,4.15-.42,6.45.19,1.21.53,2.43,1.01,3.66.47,1.23,1.12,2.39,1.95,3.46.82,1.08,1.81,2.01,2.96,2.79s2.5,1.33,4.04,1.64l-6.33,15.82c-2.52-.59-4.87-1.72-7.06-3.39-2.19-1.67-4.13-3.66-5.8-5.97-1.68-2.31-3.07-4.86-4.2-7.62-1.13-2.78-1.91-5.52-2.34-8.25-.76-4.78-.51-9.31.77-13.58,1.27-4.28,3.26-8.1,5.95-11.48,2.69-3.38,5.91-6.18,9.66-8.39,3.74-2.21,7.68-3.65,11.79-4.3Z"/>
    <path class="cls-1" d="M720.1,431.11l64.72,8.78-2.41,17.78-49.22-6.67-3.98,29.35-15.5-2.1,6.39-47.13Z"/>
    <path class="cls-1" d="M711.16,528.32c-.86,1.9-1.17,3.71-.94,5.43.23,1.72.83,3.31,1.83,4.77.99,1.46,2.29,2.79,3.9,3.99,1.61,1.2,3.39,2.24,5.35,3.13l30.59,13.85-7.4,16.34-30.59-13.85c-4.13-1.88-7.76-4.16-10.88-6.85-3.12-2.69-5.49-5.75-7.1-9.17-1.61-3.43-2.41-7.17-2.39-11.23.02-4.06,1.07-8.39,3.15-12.97,2.15-4.74,4.79-8.45,7.91-11.11,3.13-2.66,6.52-4.47,10.19-5.43,3.67-.97,7.5-1.15,11.51-.55,4,.6,7.98,1.8,11.95,3.6l30.59,13.85-7.4,16.34-30.59-13.86c-1.96-.88-3.93-1.55-5.93-1.98s-3.87-.53-5.61-.32c-1.75.22-3.32.8-4.73,1.74-1.4.95-2.53,2.37-3.4,4.27Z"/>
    <path class="cls-1" d="M645.47,621.11c-2.16-2-3.59-4.18-4.31-6.51-.71-2.34-.84-4.75-.38-7.24.48-2.49,1.44-5,2.91-7.53,1.47-2.53,3.28-4.96,5.45-7.3l21.84-23.54,47.89,44.42-25.77,27.79c-1.54,1.66-3.3,2.83-5.27,3.52-1.97.68-3.97.96-5.99.84-2.02-.12-4-.6-5.95-1.43-1.94-.84-3.68-1.97-5.2-3.39-2.25-2.08-3.87-4.65-4.85-7.69-.98-3.04-.93-6.19.17-9.44-3.35,1.99-6.77,2.86-10.26,2.6-3.48-.26-6.9-1.95-10.28-5.08ZM660.55,610.26c1.17,1.08,2.44,1.67,3.81,1.77,1.37.09,2.52-.35,3.43-1.33l10.07-10.86-8.03-7.45-9.63,10.39c-1,1.08-1.5,2.3-1.52,3.67-.02,1.37.61,2.63,1.87,3.8ZM695.48,616.17l-7.35-6.82-8.32,8.98c-.84.89-1.35,1.95-1.54,3.15-.2,1.2.45,2.49,1.93,3.86,1.3,1.21,2.53,1.76,3.68,1.65s2.12-.59,2.91-1.44l8.69-9.37Z"/>
    <path class="cls-1" d="M584.25,642.04l23.15,61.07-23.48,8.9c-5.05,1.91-9.8,2.79-14.25,2.65-4.45-.15-8.49-1.11-12.12-2.88-3.62-1.77-6.79-4.26-9.51-7.46-2.73-3.2-4.88-6.89-6.46-11.08-1.77-4.64-2.63-9.12-2.59-13.43.04-4.32.9-8.31,2.59-12,1.69-3.69,4.14-6.98,7.37-9.88,3.23-2.9,7.17-5.22,11.82-6.99l23.48-8.9ZM558.6,686.78c.89,2.35,2.03,4.38,3.39,6.1,1.37,1.71,2.91,3.03,4.6,3.96,1.7.93,3.55,1.46,5.57,1.58,2.01.13,4.08-.22,6.2-1.02l6.71-2.55-12.07-31.83-6.71,2.54c-2.18.83-3.98,1.97-5.39,3.42-1.41,1.46-2.44,3.12-3.07,5-.63,1.88-.88,3.91-.74,6.09s.64,4.42,1.5,6.71Z"/>
    <path class="cls-1" d="M508.22,666.33l3.19,65.24-29.96,1.46c-3.18.15-6.16-.36-8.91-1.55-2.76-1.19-5.16-2.79-7.19-4.81-2.03-2.02-3.67-4.37-4.91-7.04-1.23-2.67-1.92-5.39-2.06-8.14-.19-3.8.47-7.38,1.97-10.73,1.49-3.36,3.66-6.15,6.5-8.38l-14.95-23.31,20.21-.99,12.47,19.47,6.7-.33-.98-20.03,17.92-.88ZM492.04,702.86l-11.3.55c-1.1.05-2.1.71-2.99,1.99-.89,1.27-1.28,3.01-1.17,5.22.11,2.26.74,3.97,1.9,5.11,1.16,1.14,2.3,1.68,3.4,1.63l10.84-.53-.68-13.97Z"/>
    <path class="cls-1" d="M405.26,658.47c4.79,1.32,8.89,3.43,12.29,6.33,3.4,2.9,6.08,6.23,8.04,9.98,1.96,3.75,3.18,7.76,3.66,12.03.48,4.26.16,8.44-.96,12.52-1.14,4.14-3.03,7.91-5.69,11.32-2.65,3.4-5.81,6.18-9.48,8.32s-7.71,3.54-12.12,4.2c-4.41.66-8.95.36-13.63-.93-4.79-1.32-8.89-3.43-12.29-6.33-3.4-2.91-6.07-6.24-8.03-10.03-1.95-3.78-3.15-7.8-3.6-12.06-.45-4.26-.12-8.4.98-12.42,1.14-4.14,3.03-7.9,5.67-11.27,2.65-3.38,5.79-6.14,9.43-8.29s7.68-3.57,12.1-4.26c4.42-.7,8.97-.4,13.64.88ZM410.77,694.33c.59-2.13.86-4.27.81-6.41-.05-2.14-.45-4.15-1.22-6.01-.76-1.86-1.91-3.51-3.45-4.95-1.55-1.45-3.56-2.51-6.04-3.19-2.49-.68-4.78-.79-6.88-.31-2.1.47-3.94,1.33-5.52,2.58-1.59,1.25-2.93,2.8-4.05,4.66-1.11,1.86-1.95,3.82-2.53,5.89-.58,2.12-.85,4.26-.8,6.41.04,2.14.47,4.14,1.27,5.97.8,1.84,1.97,3.47,3.52,4.88s3.54,2.45,5.97,3.12c2.48.68,4.76.8,6.82.35,2.06-.45,3.9-1.29,5.51-2.54,1.61-1.24,2.97-2.78,4.08-4.6,1.11-1.82,1.94-3.77,2.51-5.84Z"/>
    <path class="cls-1" d="M353.95,639.96l-35.69,54.7-23.58-15.38c-2.67-1.75-4.78-3.9-6.32-6.48-1.54-2.58-2.54-5.28-3-8.11-.46-2.83-.41-5.69.16-8.57.56-2.89,1.6-5.49,3.1-7.81,1.58-2.42,3.55-4.47,5.91-6.19,2.36-1.71,4.91-2.95,7.63-3.7,2.72-.75,5.54-.93,8.46-.52,2.92.4,5.72,1.48,8.39,3.22l8.94,5.83,10.96-16.8,15.02,9.8ZM319.43,660.05l-7.94-5.18c-.92-.6-2.06-.74-3.41-.41-1.35.32-2.75,1.59-4.18,3.8-1.48,2.26-2.02,4.11-1.63,5.53s1.04,2.44,1.97,3.04l7.56,4.93,7.64-11.71Z"/>
    <path class="cls-1" d="M284.52,610.09l-11.51,10.58-19.49-21.2,11.51-10.58,19.49,21.2Z"/>
    <path class="cls-1" d="M248.46,529.53c2.21,4.45,3.36,8.91,3.46,13.38.09,4.47-.6,8.69-2.1,12.64-1.49,3.96-3.66,7.54-6.53,10.74-2.86,3.2-6.19,5.74-9.98,7.62-3.84,1.91-7.92,3.01-12.23,3.3-4.3.29-8.48-.22-12.52-1.53-4.05-1.32-7.78-3.4-11.22-6.25-3.43-2.85-6.23-6.44-8.38-10.78-2.21-4.45-3.36-8.91-3.46-13.38-.1-4.47.62-8.69,2.14-12.66,1.52-3.98,3.71-7.55,6.59-10.72,2.88-3.18,6.18-5.69,9.92-7.54,3.85-1.91,7.91-3,12.19-3.27,4.28-.28,8.44.23,12.46,1.52,4.03,1.28,7.78,3.35,11.23,6.18,3.46,2.83,6.27,6.42,8.43,10.76ZM225.39,557.52c1.97-.98,3.75-2.2,5.31-3.67,1.57-1.46,2.79-3.1,3.68-4.91.88-1.81,1.35-3.76,1.39-5.88.05-2.11-.5-4.32-1.65-6.63-1.14-2.31-2.59-4.09-4.35-5.35-1.75-1.25-3.62-2.05-5.6-2.4-1.99-.35-4.04-.32-6.17.09-2.12.4-4.15,1.08-6.07,2.03-1.99.99-3.75,2.21-5.32,3.67-1.57,1.46-2.77,3.1-3.61,4.93-.85,1.82-1.28,3.78-1.3,5.88s.53,4.27,1.65,6.52c1.15,2.31,2.58,4.08,4.29,5.32,1.71,1.24,3.57,2.05,5.57,2.42,2.01.38,4.05.37,6.16-.02,2.1-.39,4.11-1.06,6.03-2.02Z"/>
    <path class="cls-1" d="M228.32,478.58l-64.48,10.41-7.14-44.23,15.44-2.49,4.28,26.52,10.72-1.72-3.49-21.62,14.35-2.32,3.49,21.62,23.97-3.87,2.86,17.71Z"/>
    <path class="cls-1" d="M221.17,412.87l-64.94-6.99,4.8-44.55,15.55,1.68-2.88,26.71,10.79,1.16,2.35-21.77,14.45,1.55-2.35,21.77,24.15,2.6-1.92,17.83Z"/>
  </g>
  <g>
    <path class="cls-1" d="M471.86,625.38c-1.02,0-2.05,0-3.08-.02-54.81-.8-106.03-22.9-144.22-62.22-38.19-39.32-58.79-91.16-57.99-145.97.8-54.81,22.89-106.03,62.22-144.22,39.32-38.2,90.87-58.84,145.97-57.99,54.81.8,106.03,22.9,144.22,62.22,38.19,39.32,58.78,91.16,57.98,145.97-.8,54.81-22.89,106.03-62.22,144.22-38.58,37.48-89.23,58-142.89,58ZM471.7,240.96c-46.87,0-91.09,17.93-124.79,50.65-34.34,33.35-53.63,78.07-54.33,125.93-.7,47.87,17.28,93.14,50.63,127.47,33.35,34.34,78.08,53.64,125.94,54.33,47.89.94,93.13-17.29,127.47-50.64,34.34-33.35,53.63-78.07,54.33-125.93h0c.7-47.87-17.28-93.14-50.63-127.47-33.35-34.34-78.08-53.64-125.94-54.33-.89-.02-1.8-.02-2.68-.02Z"/>
    <g>
      <path class="cls-1" d="M529.9,500.96l-19.37-.28c-9.03,16.65-19.95,30.55-27.82,39.58l-9.89,11.37-9.89-11.37c-7.87-9.03-18.79-22.94-27.82-39.58l-19.37.28c11.85,24.8,30.26,48.83,56.91,74.42h.35c26.66-25.58,45.06-49.61,56.91-74.42Z"/>
      <path class="cls-1" d="M473.68,577.1h-1.73l-.5-.48c-26.7-25.62-45.43-50.13-57.27-74.92l-1.16-2.42,23.1-.34.5.91c9.04,16.65,20,30.55,27.61,39.27l8.6,9.88,8.6-9.88c7.61-8.73,18.57-22.62,27.61-39.28l.5-.91,23.1.34-1.16,2.42c-11.84,24.79-30.58,49.29-57.27,74.92l-.5.48ZM418.46,502.64c11.56,23.27,29.37,46.38,54.36,70.52,24.99-24.14,42.8-47.24,54.36-70.52l-15.63-.23c-9.09,16.52-19.96,30.28-27.54,38.98l-11.19,12.86-11.19-12.86c-7.58-8.7-18.45-22.46-27.54-38.98l-15.63.23Z"/>
    </g>
    <path class="cls-1" d="M425.28,395.7c3.75,10.16,5.71,21.11,6.52,30.83-17.45-1.92-39.1-7.43-52.26-20.93-13.18-13.51-18.15-35.18-19.61-52.77,9.57,1.04,20.29,3.22,30.23,7.12l19.87-19.87c-34.07-17.83-76.18-13.98-76.18-13.98,0,0-7.37,62.73,26.87,97.85,34.25,35.12,97.14,29.32,97.14,29.32,0,0,4.97-42.83-12.63-77.53l-19.96,19.96Z"/>
    <path class="cls-1" d="M611.79,326.12s-62.89-5.83-97.16,29.27c-34.26,35.1-26.92,97.83-26.92,97.83,0,0,42.94,3.91,77.2-14.53l-20.45-19.47c-10.07,4-20.96,6.23-30.66,7.28,1.49-17.49,6.46-39.27,19.63-52.76,13.19-13.51,34.73-19.01,52.27-20.9-.8,9.59-2.72,20.37-6.37,30.4l20.35,19.37c16.99-34.5,12.11-76.5,12.11-76.5Z"/>
    <path class="cls-1" d="M484.65,557.97h-24.57v-34.12c0-16.46-3.19-32.52-9.49-47.73-6.3-15.21-15.4-28.83-27.04-40.47l-.43-.43,17.36-17.38.43.43c13.94,13.94,24.83,30.24,32.37,48.44,7.54,18.21,11.36,37.43,11.36,57.13v34.12Z"/>
    <path class="cls-1" d="M484.57,557.97h-24.57v-34.12c0-19.71,3.82-38.93,11.36-57.13,7.54-18.21,18.43-34.5,32.36-48.44l.43-.43,17.37,17.37-.43.43c-11.64,11.64-20.74,25.26-27.04,40.47-6.3,15.21-9.49,31.27-9.49,47.73v34.12Z"/>
  </g>
</svg>