<svg id="Layer_1" data-name="Layer 1" xmlns="http://www.w3.org/2000/svg" viewBox="0 0 941.05 837.21"><defs><style>.cls-1{fill:#a2ba85;}</style></defs><path class="cls-1" d="M478,319.07c6.23,7.75,12.61,18.52,12.48,29.15s-6.79,21.25-13.2,28.83c-6.18-7.71-12.61-18.53-12.48-29.15s6.79-21.24,13.2-28.83m.27-21s-27.92,22-28.27,49.67,27,50.37,27,50.37,27.92-22.05,28.27-49.67-27-50.37-27-50.37Z"/><path class="cls-1" d="M416.43,348.9h0c8.46,0,20.26,1.36,28.5,7.82s12.75,18.3,14.87,28c-.73,0-1.47,0-2.23,0-8.46,0-20.27-1.36-28.5-7.83s-12.75-18.29-14.87-28c.72,0,1.47,0,2.23,0m0-14.8a93.53,93.53,0,0,0-18.78,1.83s.55,35.57,22.28,52.63c11.27,8.86,26,11,37.64,11a93.36,93.36,0,0,0,18.77-1.83s-.54-35.57-22.27-52.64c-11.28-8.85-26-11-37.64-11Z"/><path class="cls-1" d="M537.89,348.9c.76,0,1.51,0,2.23,0-2.12,9.71-6.5,21.43-14.86,28s-20.05,7.83-28.5,7.83c-.76,0-1.51,0-2.23,0,2.12-9.71,6.5-21.43,14.86-28s20.05-7.82,28.5-7.82m0-14.8c-11.59,0-26.36,2.13-37.64,11C478.52,362.15,478,397.72,478,397.72a93.53,93.53,0,0,0,18.78,1.83c11.59,0,26.36-2.13,37.64-11,21.73-17.06,22.27-52.63,22.27-52.63a93.53,93.53,0,0,0-18.78-1.83Z"/><path class="cls-1" d="M540.28,524.42H414v-71.6a63.12,63.12,0,1,1,126.24,0Zm-111.44-14.8h96.64v-56.8a48.32,48.32,0,1,0-96.64,0Z"/><path class="cls-1" d="M477.16,480.75a110,110,0,1,1,110.05-110A110.17,110.17,0,0,1,477.16,480.75Zm0-205.29a95.25,95.25,0,1,0,95.25,95.25A95.36,95.36,0,0,0,477.16,275.46Z"/><path class="cls-1" d="M342.36,476.14h9.12v11.74h28V476.14h9.15v45h-9.15V495.68h-28v25.43h-9.12Z"/><path class="cls-1" d="M565.18,511.89c1.63.92,3.29,1.75,5,2.49a39.55,39.55,0,0,0,5.23,1.87,41,41,0,0,0,5.68,1.16,47,47,0,0,0,6.34.41,37.76,37.76,0,0,0,6.91-.54,16.93,16.93,0,0,0,4.64-1.46,6.69,6.69,0,0,0,2.62-2.23,5.17,5.17,0,0,0,.82-2.82,4.48,4.48,0,0,0-2-3.87q-2-1.42-6.3-1.43a34.31,34.31,0,0,0-3.94.25c-1.39.16-2.78.34-4.19.53s-2.8.37-4.17.53a31.46,31.46,0,0,1-3.87.25,21.32,21.32,0,0,1-5.8-.78,15.32,15.32,0,0,1-4.92-2.33,11.66,11.66,0,0,1-3.41-3.88,11.29,11.29,0,0,1-1.26-5.44A13.33,13.33,0,0,1,563,491a12,12,0,0,1,1.61-3.47,14.18,14.18,0,0,1,2.86-3.08,17.14,17.14,0,0,1,4.25-2.46,27.68,27.68,0,0,1,5.75-1.62,41.56,41.56,0,0,1,7.44-.59,56.39,56.39,0,0,1,6.07.33q3,.33,5.94.93c1.93.4,3.78.89,5.57,1.45a46.88,46.88,0,0,1,5,1.89l-4,7.36a43.57,43.57,0,0,0-4.08-1.54c-1.46-.47-3-.87-4.58-1.22s-3.23-.62-4.93-.82a44.39,44.39,0,0,0-5.19-.3,28.66,28.66,0,0,0-6.2.55,13.64,13.64,0,0,0-3.87,1.39,5.12,5.12,0,0,0-2,1.9,4.46,4.46,0,0,0-.56,2.09,3.87,3.87,0,0,0,1.81,3.29,9.66,9.66,0,0,0,5.52,1.28,30.09,30.09,0,0,0,3.44-.22l4.09-.47c1.43-.17,2.88-.33,4.37-.47a43.16,43.16,0,0,1,4.33-.22,25.33,25.33,0,0,1,7,.89,14.65,14.65,0,0,1,5.14,2.55,10.7,10.7,0,0,1,3.14,4,12.69,12.69,0,0,1,1.06,5.25,13.32,13.32,0,0,1-1.8,6.92,15.19,15.19,0,0,1-5.12,5.12,25.93,25.93,0,0,1-8,3.16,46.64,46.64,0,0,1-10.44,1.08,58.34,58.34,0,0,1-7.43-.47,55,55,0,0,1-6.94-1.36,50,50,0,0,1-6.33-2.1,45,45,0,0,1-5.57-2.69Z"/><path class="cls-1" d="M230.83,224.2l51.1,33.22-9.12,14-20-13-11.14,17.13,20,13-9.12,14-51.1-33.22,9.12-14,18.86,12.25,11.13-17.13L221.7,238.24Z"/><path class="cls-1" d="M306.73,232.82l-40-46,12.63-11,40,46Z"/><path class="cls-1" d="M347.73,201.1l-27.24-54.52,15-7.48,20.71,41.47,24.73-12.35,6.52,13.05Z"/><path class="cls-1" d="M416.12,172.67l-10-60.12,16.51-2.75,7.62,45.72L457.5,151l2.4,14.39Z"/><path class="cls-1" d="M531.93,129.76a54,54,0,0,0-4.9-3.47,43.68,43.68,0,0,0-4.93-2.62,19,19,0,0,0-5.42-1.59,7.73,7.73,0,0,0-3.57.2,2.37,2.37,0,0,0-1.67,2.09,2.84,2.84,0,0,0,1,2.63,14.5,14.5,0,0,0,3.64,2.21c1.61.73,3.52,1.62,5.75,2.66a52.73,52.73,0,0,1,9.17,5.19,16.89,16.89,0,0,1,5.54,6.45,16.58,16.58,0,0,1,1,9.36,19.12,19.12,0,0,1-3.18,8.8,15.86,15.86,0,0,1-6.06,5.15,23.21,23.21,0,0,1-7.83,2.16,36.4,36.4,0,0,1-8.47-.15,49.31,49.31,0,0,1-8.94-2.12,61.79,61.79,0,0,1-8.81-3.7,48.55,48.55,0,0,1-7.58-4.79l9.11-13.58a62.66,62.66,0,0,0,5.76,4.15,48.27,48.27,0,0,0,5.94,3.14,24.78,24.78,0,0,0,6.8,2,7.61,7.61,0,0,0,3.88-.18,2.15,2.15,0,0,0,1.31-1.68,3,3,0,0,0-1.5-3,27.9,27.9,0,0,0-4.65-2.52q-2.89-1.29-6.39-3a38.59,38.59,0,0,1-8.14-5.18,14.57,14.57,0,0,1-4.3-6,16.16,16.16,0,0,1-.61-7.7,19.06,19.06,0,0,1,4.65-10.72,20.11,20.11,0,0,1,9.22-5.69,26.91,26.91,0,0,1,11.41-.82,35.06,35.06,0,0,1,8.41,2.21,58.39,58.39,0,0,1,7.39,3.64q3.4,2,5.95,3.75Z"/><path class="cls-1" d="M565.36,181.83l23.39-56.28L604.21,132l-23.39,56.28Z"/><path class="cls-1" d="M612.05,203.9l37.77-47.84,18.39,14.52q7.95,6.28,10.78,13.71a26.52,26.52,0,0,1,1.28,15,33.67,33.67,0,0,1-6.77,14.18,32.53,32.53,0,0,1-13,10.3,26.63,26.63,0,0,1-15,1.71,33.3,33.3,0,0,1-15-7.06Zm48.11-1a19.72,19.72,0,0,0,3.85-7.51,12.62,12.62,0,0,0-.27-7.27,13.42,13.42,0,0,0-4.57-6.12l-5.26-4.15-19.68,24.93,5.26,4.14a12.91,12.91,0,0,0,7.1,3,13.26,13.26,0,0,0,7.21-1.58A20,20,0,0,0,660.16,202.94Z"/><path class="cls-1" d="M710.84,289.45l-12.17,8.05-24-36.22,50.82-33.63,23.55,35.58-12.17,8-14.31-21.62-7.16,4.74,12.22,18.47-11.31,7.48-12.22-18.47-8,5.31Z"/><path class="cls-1" d="M228.92,530.91a55.12,55.12,0,0,0,.64-6,46.1,46.1,0,0,0-.13-5.58,19.2,19.2,0,0,0-1.25-5.51,7.8,7.8,0,0,0-1.93-3,2.35,2.35,0,0,0-2.63-.44,2.87,2.87,0,0,0-1.79,2.19,14.13,14.13,0,0,0-.15,4.25q.21,2.64.48,6.32a53.31,53.31,0,0,1,0,10.54,15.06,15.06,0,0,1-10.61,13.42,19.27,19.27,0,0,1-9.23,1.52,16,16,0,0,1-7.46-2.78,23.2,23.2,0,0,1-5.71-5.77,36.67,36.67,0,0,1-4-7.47,47.9,47.9,0,0,1-2.52-8.83,61.85,61.85,0,0,1-1.08-9.5,50,50,0,0,1,.48-9l16.3,1.32a66,66,0,0,0-.81,7.06,49.88,49.88,0,0,0,.16,6.72,24.49,24.49,0,0,0,1.61,6.88,7.67,7.67,0,0,0,2.05,3.3,2.13,2.13,0,0,0,2.11.32,3,3,0,0,0,1.89-2.77,28.75,28.75,0,0,0-.07-5.28c-.2-2.11-.37-4.46-.54-7a38.2,38.2,0,0,1,.56-9.63,14.56,14.56,0,0,1,3.13-6.68,16.16,16.16,0,0,1,6.42-4.29,19.1,19.1,0,0,1,11.63-1.18,20.22,20.22,0,0,1,9.46,5.27,27,27,0,0,1,6.29,9.56,33.91,33.91,0,0,1,2.17,8.42,55.32,55.32,0,0,1,.44,8.22q-.1,4-.37,7Z"/><path class="cls-1" d="M235.26,616.89a29.67,29.67,0,0,1-6-11.37,30.37,30.37,0,0,1-.82-12A32,32,0,0,1,232,582.34a31,31,0,0,1,7.41-9,29.62,29.62,0,0,1,10.4-5.63,32.27,32.27,0,0,1,11.7-1.3,30.55,30.55,0,0,1,11.56,3.23,31.14,31.14,0,0,1,9.9,8,29.44,29.44,0,0,1,6.8,23.37,32.56,32.56,0,0,1-3.71,11.18,30.64,30.64,0,0,1-7.34,8.95,29.75,29.75,0,0,1-10.3,5.6,31.52,31.52,0,0,1-11.68,1.34,31,31,0,0,1-11.56-3.17A30.38,30.38,0,0,1,235.26,616.89Zm14.93-30.38a20.83,20.83,0,0,0-4,4.47,16.05,16.05,0,0,0-2.31,5.28,12.31,12.31,0,0,0,0,5.63,13.65,13.65,0,0,0,3,5.64,13.49,13.49,0,0,0,5.06,3.94,11.91,11.91,0,0,0,5.65.95,17,17,0,0,0,5.61-1.44,21.49,21.49,0,0,0,5.05-3.13,20.69,20.69,0,0,0,4-4.44,16.07,16.07,0,0,0,2.28-5.25,11.71,11.71,0,0,0-.06-5.64,13.92,13.92,0,0,0-3-5.58,13.26,13.26,0,0,0-5-3.91,12.89,12.89,0,0,0-5.58-1,15.42,15.42,0,0,0-5.58,1.35A21.23,21.23,0,0,0,250.19,586.51Z"/><path class="cls-1" d="M292.18,670.57l32.7-51.43,14.13,9-24.88,39.12,23.33,14.83-7.84,12.31Z"/><path class="cls-1" d="M396.36,720a30,30,0,0,1-11.5-5.53,22.69,22.69,0,0,1-6.56-8.57,27.52,27.52,0,0,1-2.22-10.56,41.31,41.31,0,0,1,1.44-11.46l8-30.24,16.18,4.28-8,30.23a27,27,0,0,0-.89,5.71,15.92,15.92,0,0,0,.58,5.2,9.93,9.93,0,0,0,2.32,4.12,9.26,9.26,0,0,0,4.46,2.47,9.64,9.64,0,0,0,5.21.09,9.29,9.29,0,0,0,4.07-2.46A17.6,17.6,0,0,0,412.5,699a27,27,0,0,0,2-5.32l8-30.22,16.18,4.28-8,30.25a40.67,40.67,0,0,1-4.65,11,28.06,28.06,0,0,1-7.32,8,22.39,22.39,0,0,1-9.89,4A30.46,30.46,0,0,1,396.36,720Z"/><path class="cls-1" d="M517.82,681.91l-17.49.94,2.51,46.29-16.71.91-2.51-46.29-17.57,1-.79-14.57L517,667.33Z"/><path class="cls-1" d="M563.15,718.26,544.93,660.1l16-5,18.23,58.16Z"/><path class="cls-1" d="M648,680.08a29.79,29.79,0,0,1-12,4.67,30.25,30.25,0,0,1-12-.6,31.74,31.74,0,0,1-10.68-4.94,30.8,30.8,0,0,1-8.07-8.42,29.48,29.48,0,0,1-4.37-11,32.13,32.13,0,0,1,.09-11.77,30.24,30.24,0,0,1,4.56-11.1,31,31,0,0,1,9.12-8.89,29.45,29.45,0,0,1,24-4,32.73,32.73,0,0,1,10.67,5,30.76,30.76,0,0,1,8,8.34,29.89,29.89,0,0,1,4.35,10.89,31.38,31.38,0,0,1,0,11.75,30.86,30.86,0,0,1-4.5,11.11A30.49,30.49,0,0,1,648,680.08Zm-28.42-18.4a20.6,20.6,0,0,0,4,4.54,16,16,0,0,0,5,2.92,12.31,12.31,0,0,0,5.6.66A15.11,15.11,0,0,0,644.53,663a12,12,0,0,0,1.61-5.5,16.89,16.89,0,0,0-.77-5.74,21.14,21.14,0,0,0-2.52-5.38,20.1,20.1,0,0,0-3.94-4.5A16.35,16.35,0,0,0,634,639a11.94,11.94,0,0,0-5.61-.61,14.07,14.07,0,0,0-5.89,2.29,13.31,13.31,0,0,0-4.47,4.54,12.8,12.8,0,0,0-1.65,5.42,15.55,15.55,0,0,0,.68,5.7A21.58,21.58,0,0,0,619.55,661.68Z"/><path class="cls-1" d="M695.58,597.9l23.7,18.33L709,629.47l-48.21-37.28,8-10.32,39.48-.4-24.52-19L694,549.27l48.21,37.28-8.14,10.53Z"/><path class="cls-1" d="M739.66,492.93a56.27,56.27,0,0,0-4.42,4.08,43.94,43.94,0,0,0-3.57,4.28,19.1,19.1,0,0,0-2.68,5,7.93,7.93,0,0,0-.54,3.54,2.37,2.37,0,0,0,1.7,2.07,2.88,2.88,0,0,0,2.79-.47,14.4,14.4,0,0,0,2.91-3.11q1.57-2.13,3.79-5.07a53,53,0,0,1,7-7.91,16.91,16.91,0,0,1,7.46-4.09,16.64,16.64,0,0,1,9.36,1,19.22,19.22,0,0,1,8,4.93,15.9,15.9,0,0,1,3.79,7,23.07,23.07,0,0,1,.5,8.11,36.3,36.3,0,0,1-1.9,8.25,49.3,49.3,0,0,1-3.91,8.31,60.59,60.59,0,0,1-5.44,7.86,47.83,47.83,0,0,1-6.25,6.43l-11.41-11.71a62.15,62.15,0,0,0,5.25-4.78,47.7,47.7,0,0,0,4.3-5.17,24.68,24.68,0,0,0,3.32-6.24,7.52,7.52,0,0,0,.62-3.84,2.13,2.13,0,0,0-1.38-1.63,3,3,0,0,0-3.24.86,27.09,27.09,0,0,0-3.42,4c-1.24,1.71-2.65,3.6-4.23,5.65a37.88,37.88,0,0,1-6.75,6.89,14.59,14.59,0,0,1-6.75,3,16.1,16.1,0,0,1-7.66-1,19,19,0,0,1-9.53-6.77,20.11,20.11,0,0,1-3.66-10.18,26.8,26.8,0,0,1,1.54-11.34,34.48,34.48,0,0,1,3.9-7.77,54.81,54.81,0,0,1,5.09-6.48c1.78-1.95,3.42-3.63,4.89-5.05Z"/><path class="cls-1" d="M754.21,392.29c-8.3-.1-14.92-8.49-14.92-8.49s6.83-8.21,15.13-8.11,14.91,8.49,14.91,8.49S762.5,392.4,754.21,392.29Z"/><path class="cls-1" d="M205.92,392.29c-8.3-.1-14.92-8.49-14.92-8.49s6.83-8.21,15.12-8.11S221,384.18,221,384.18,214.21,392.4,205.92,392.29Z"/></svg>