<?xml version="1.0" encoding="UTF-8"?>
<svg id="Layer_1" data-name="Layer 1" xmlns="http://www.w3.org/2000/svg" width="137" height="137.16" viewBox="0 0 137 137.16">
  <defs>
    <style>
      .cls-1 {
        fill: #a3bb86;
      }

      .cls-2 {
        fill: #a4bd86;
      }
    </style>
  </defs>
  <g>
    <path class="cls-1" d="M13.75,40.4c-.75-.5-1.4-1.13-1.93-1.89-.54-.76-.92-1.61-1.15-2.54-.23-.93-.26-1.91-.1-2.92s.57-2.01,1.22-3c.78-1.18,1.71-2.05,2.78-2.6s2.16-.78,3.25-.67l.13,3.8c-.51-.12-.96-.11-1.37.03-.41.14-.76.34-1.07.62-.3.27-.56.56-.77.88-.32.49-.5.97-.55,1.45-.04.48.02.93.18,1.37s.4.83.71,1.19c.31.36.65.67,1.04.92.43.28.88.49,1.36.62.48.13.95.18,1.42.14.46-.04.9-.18,1.31-.42.41-.24.76-.58,1.05-1.02.21-.31.37-.66.48-1.05.12-.39.15-.79.11-1.2s-.21-.81-.48-1.19l3.47-1.67c.44.64.69,1.39.74,2.24.05.85-.04,1.71-.29,2.57-.25.87-.61,1.65-1.08,2.36-.6.91-1.34,1.63-2.2,2.15-.87.52-1.78.85-2.75,1-.97.15-1.94.12-2.89-.08-.96-.2-1.83-.56-2.62-1.08Z"/>
    <path class="cls-1" d="M35.28,26.54c-.93.73-1.84,1.21-2.74,1.43-.9.22-1.78.23-2.62.03-.84-.2-1.63-.57-2.37-1.11-.74-.54-1.41-1.18-2.01-1.94l-4.71-5.95,3.18-2.52,4.7,5.95c.3.38.62.71.98,1,.35.29.72.5,1.09.64.38.14.76.19,1.14.15s.75-.21,1.12-.51c.38-.3.64-.63.78-1,.14-.36.17-.75.11-1.15-.06-.4-.19-.81-.39-1.21-.2-.41-.44-.8-.74-1.17l-4.7-5.95,3.18-2.52,4.7,5.95c.64.8,1.12,1.64,1.46,2.5.34.86.5,1.72.49,2.58-.01.86-.23,1.69-.66,2.5-.43.81-1.1,1.57-2,2.28Z"/>
    <path class="cls-1" d="M44.66,20.13l-5.11-13.86,6.37-2.35c.68-.25,1.35-.34,2.03-.28.67.06,1.3.25,1.89.56s1.1.71,1.54,1.2c.44.49.77,1.03.98,1.61.2.53.31,1.08.34,1.63.03.55-.03,1.09-.18,1.61-.15.52-.37,1.01-.68,1.46l4.81,4.02-4.18,1.54-4.01-3.36-1.54.57,1.57,4.25-3.81,1.4ZM45.67,11.15l2.4-.88c.15-.06.28-.17.38-.34.1-.17.16-.38.17-.64.01-.26-.03-.54-.15-.85-.12-.33-.28-.58-.47-.75-.19-.17-.39-.29-.59-.35s-.39-.06-.54,0l-2.3.85,1.09,2.97Z"/>
    <path class="cls-1" d="M72.63,10.8c.04.89-.17,1.62-.62,2.19-.45.58-1.08,1.01-1.87,1.31-.79.3-1.67.47-2.64.52l-7.25.33-.67-14.76L68.14,0c.69-.03,1.3.12,1.82.47.52.35.93.8,1.23,1.37.3.57.46,1.17.49,1.79.03.68-.11,1.34-.44,2-.33.65-.83,1.16-1.52,1.51.86.21,1.54.62,2.06,1.22.52.6.8,1.41.85,2.44ZM63.79,3.66l.1,2.27,2.76-.13c.18,0,.35-.05.52-.12.16-.07.3-.19.4-.36.1-.17.15-.41.13-.71-.01-.28-.07-.49-.17-.65-.1-.15-.22-.27-.37-.34-.15-.07-.31-.1-.49-.09l-2.89.13ZM68.48,10.15c-.01-.25-.07-.47-.17-.65s-.23-.33-.38-.43c-.16-.1-.34-.15-.55-.14l-3.35.15.11,2.47,3.2-.15c.22,0,.42-.07.6-.17s.31-.25.41-.44c.09-.18.14-.4.13-.65Z"/>
    <path class="cls-1" d="M88.03,7.82c-.39-.38-.75-.71-1.08-.97-.33-.26-.71-.52-1.11-.77-.41-.25-.83-.43-1.26-.53-.34-.09-.62-.1-.87-.05-.24.05-.4.2-.46.46-.06.24,0,.46.18.66.18.2.45.41.81.63.37.22.8.49,1.31.8.82.49,1.51.99,2.06,1.5.56.51.94,1.08,1.15,1.71.21.63.21,1.39-.02,2.28-.22.85-.55,1.53-1.01,2.03-.46.5-.99.86-1.6,1.07-.61.21-1.26.31-1.94.3-.69-.01-1.36-.1-2.04-.27-.69-.17-1.38-.43-2.09-.76-.71-.33-1.39-.71-2.02-1.14-.64-.43-1.2-.88-1.69-1.36l2.57-3.02c.46.46.88.85,1.27,1.16.39.31.84.62,1.35.92.5.3,1.03.52,1.58.66.43.11.74.13.94.06.19-.07.32-.19.36-.37.07-.28-.02-.54-.28-.76-.26-.23-.61-.47-1.05-.73-.44-.26-.93-.56-1.46-.89-.76-.49-1.37-.98-1.82-1.47-.45-.49-.74-1.01-.87-1.56-.13-.55-.11-1.18.07-1.87.27-1.05.74-1.87,1.42-2.45.68-.58,1.47-.95,2.38-1.11.91-.16,1.83-.12,2.77.12.7.18,1.35.43,1.96.77.61.33,1.17.69,1.68,1.08.51.39.95.74,1.33,1.07l-2.52,2.82Z"/>
    <path class="cls-1" d="M91.63,19.95l6.8-13.11,3.6,1.87-6.8,13.11-3.6-1.87Z"/>
    <path class="cls-1" d="M99.74,24.3l9.82-11.04,4.24,3.78c1.22,1.09,2.03,2.24,2.41,3.47.39,1.23.42,2.44.09,3.65-.32,1.21-.94,2.32-1.84,3.33-1,1.12-2.09,1.89-3.29,2.31-1.2.42-2.42.48-3.66.2-1.24-.29-2.42-.93-3.54-1.92l-4.24-3.78ZM111.39,24.76c.51-.57.86-1.16,1.04-1.76s.2-1.19.04-1.76c-.16-.57-.5-1.09-1.02-1.55l-1.21-1.08-5.12,5.75,1.21,1.08c.53.47,1.09.74,1.68.82.59.08,1.18-.01,1.77-.28.59-.26,1.13-.67,1.62-1.22Z"/>
    <path class="cls-1" d="M120.5,43.6l-3.02,1.84-5.47-8.99,12.62-7.68,5.38,8.83-3.02,1.84-3.27-5.37-1.78,1.08,2.79,4.59-2.81,1.71-2.79-4.58-1.99,1.21,3.37,5.53Z"/>
    <path class="cls-1" d="M128.78,54.9c.9-.1,1.79-.04,2.69.2.9.24,1.74.64,2.52,1.21.78.57,1.43,1.29,1.96,2.17.53.88.86,1.91.99,3.08.16,1.41.01,2.67-.45,3.78-.47,1.11-1.15,1.98-2.06,2.6l-2.55-2.83c.46-.23.8-.54,1.03-.9s.36-.75.42-1.16c.06-.41.07-.79.02-1.17-.07-.58-.24-1.06-.52-1.46-.27-.39-.62-.7-1.02-.93s-.84-.38-1.31-.46-.93-.09-1.39-.04c-.51.06-.99.19-1.44.4-.45.21-.84.47-1.17.81-.33.33-.58.72-.73,1.16-.16.44-.21.93-.15,1.45.04.37.14.74.3,1.12.16.37.39.7.69.99.3.29.68.49,1.14.6l-1.58,3.51c-.75-.21-1.42-.62-2.01-1.23-.59-.62-1.07-1.34-1.43-2.16-.37-.82-.6-1.66-.7-2.5-.13-1.09-.02-2.11.31-3.06.33-.95.82-1.8,1.47-2.54.65-.74,1.4-1.34,2.26-1.8.86-.46,1.76-.75,2.7-.86Z"/>
    <path class="cls-1" d="M121.22,79.36c.23-1.1.64-2.06,1.24-2.87s1.31-1.47,2.15-1.97c.83-.5,1.72-.84,2.67-1,.95-.17,1.89-.15,2.83.04.96.2,1.84.57,2.64,1.12.79.54,1.47,1.22,2.02,2.02.55.8.93,1.69,1.14,2.68.21.98.2,2.01-.02,3.09-.23,1.1-.64,2.06-1.24,2.87s-1.32,1.46-2.15,1.96c-.84.49-1.73.82-2.68.99-.95.17-1.88.16-2.81-.03-.95-.2-1.82-.56-2.62-1.1-.8-.54-1.47-1.21-2.02-2.01-.55-.8-.93-1.69-1.15-2.67-.22-.98-.21-2.01,0-3.1ZM129.23,77.59c-.49-.1-.98-.13-1.46-.09-.48.04-.93.16-1.35.36-.42.2-.77.48-1.07.85-.29.37-.5.84-.62,1.41-.12.57-.11,1.09.02,1.55s.36.87.68,1.21c.32.34.69.62,1.12.85.43.22.88.38,1.36.48.49.1.97.13,1.45.09.48-.04.92-.17,1.34-.36s.77-.49,1.06-.87c.29-.38.49-.85.61-1.4.12-.57.11-1.09-.02-1.54-.13-.46-.35-.86-.65-1.21-.31-.35-.67-.63-1.1-.85-.43-.22-.88-.38-1.36-.48Z"/>
    <path class="cls-1" d="M112.48,99.99l6.62,4.1-3.35-4.99,1.14-1.84,5.96.78-6.61-4.1,2.13-3.45,12.56,7.78-2.33,3.77-7.58-.95,4.22,6.38-2.32,3.75-12.56-7.78,2.14-3.45Z"/>
    <path class="cls-1" d="M106.83,106.86l9.38,11.41-4.92,4.04c-.56.46-1.17.77-1.82.93-.66.16-1.31.19-1.97.1-.65-.1-1.27-.31-1.84-.62s-1.06-.72-1.46-1.2c-.56-.68-.92-1.44-1.1-2.3-.18-.86-.14-1.71.11-2.55.25-.84.75-1.57,1.5-2.19l1.86-1.53-2.88-3.5,3.14-2.58ZM108.82,115.67l-1.66,1.36c-.13.11-.22.24-.27.42-.06.17-.05.38.02.63.07.25.23.52.48.82.26.32.51.53.75.64.24.1.45.13.64.09.19-.04.35-.11.48-.22l1.57-1.29-2.01-2.44Z"/>
    <path class="cls-1" d="M88.49,118.51c1.04-.42,2.07-.6,3.08-.54,1.01.05,1.95.29,2.83.71.88.42,1.65.98,2.3,1.68.66.7,1.17,1.5,1.52,2.38.37.92.54,1.85.52,2.82-.02.96-.21,1.9-.58,2.79-.37.9-.9,1.71-1.61,2.42-.71.71-1.57,1.28-2.59,1.68-1.04.42-2.07.6-3.08.54-1.01-.05-1.95-.29-2.82-.72-.87-.43-1.64-.99-2.3-1.69-.66-.7-1.17-1.49-1.51-2.37-.36-.9-.53-1.83-.52-2.79.01-.96.2-1.89.57-2.79.36-.9.9-1.71,1.59-2.43s1.56-1.28,2.6-1.7ZM94.38,124.22c-.19-.46-.43-.89-.73-1.27-.3-.38-.65-.69-1.04-.93-.39-.24-.82-.38-1.3-.42-.47-.04-.98.04-1.52.26-.54.22-.97.51-1.29.87-.32.37-.53.77-.64,1.23s-.14.92-.09,1.4.16.95.34,1.4c.18.46.43.88.72,1.26.3.37.65.68,1.04.92.39.24.83.37,1.31.41.48.03.98-.05,1.51-.26.54-.21.97-.5,1.28-.87.31-.36.53-.77.65-1.21s.16-.91.11-1.39c-.05-.48-.16-.95-.34-1.4Z"/>
    <path class="cls-1" d="M69.42,132.46c.49.24.94.44,1.34.58.4.14.83.27,1.3.38.47.11.92.14,1.37.11.34-.03.62-.1.84-.23.21-.13.31-.32.29-.58-.02-.25-.14-.44-.38-.57-.23-.14-.56-.25-.97-.34-.42-.09-.91-.21-1.49-.35-.93-.21-1.74-.47-2.43-.78-.69-.31-1.23-.73-1.63-1.26-.4-.53-.63-1.25-.7-2.17-.06-.88.04-1.62.32-2.24.27-.62.67-1.13,1.18-1.52.52-.4,1.1-.7,1.75-.9.65-.2,1.32-.33,2.02-.38.7-.05,1.45-.03,2.22.06.78.09,1.54.24,2.28.44s1.42.46,2.04.76l-1.49,3.67c-.58-.29-1.1-.53-1.57-.7s-.99-.33-1.57-.45c-.57-.13-1.14-.17-1.71-.13-.44.03-.75.11-.91.23-.17.12-.24.28-.23.47.02.29.19.5.5.64.31.14.72.26,1.23.37.5.11,1.06.24,1.67.39.88.23,1.61.5,2.19.83.58.32,1.02.73,1.32,1.21.3.48.47,1.08.53,1.8.08,1.09-.11,2.01-.57,2.78s-1.09,1.37-1.9,1.81c-.81.44-1.7.69-2.67.76-.72.05-1.42.01-2.1-.11-.68-.12-1.33-.29-1.94-.5-.61-.21-1.14-.4-1.6-.59l1.5-3.47Z"/>
    <path class="cls-1" d="M48.99,130.95l4.15.87,2.31-11,3.97.84-2.32,11,4.17.88-.73,3.46-12.3-2.59.73-3.46Z"/>
    <path class="cls-1" d="M37.09,121.68c-.54.72-1.21,1.32-2,1.81-.79.49-1.66.82-2.61.99-.95.17-1.92.15-2.92-.08s-1.97-.69-2.92-1.4c-1.13-.85-1.94-1.83-2.43-2.94-.49-1.11-.64-2.2-.47-3.29l3.8.11c-.15.5-.17.95-.05,1.37.11.42.29.78.55,1.1.25.32.53.6.83.82.47.35.94.56,1.41.63.47.07.93.04,1.37-.1.44-.14.85-.35,1.23-.63.38-.29.71-.61.98-.98.31-.41.54-.85.71-1.32.16-.47.24-.94.23-1.41-.01-.47-.12-.91-.34-1.33-.21-.42-.53-.79-.95-1.11-.3-.22-.64-.41-1.02-.55-.38-.14-.78-.2-1.19-.18s-.82.15-1.22.41l-1.45-3.57c.67-.4,1.43-.6,2.28-.6s1.7.15,2.55.45c.85.3,1.61.71,2.29,1.22.88.66,1.54,1.44,2.01,2.33.46.9.74,1.83.82,2.81.09.98,0,1.94-.26,2.88s-.67,1.79-1.24,2.54Z"/>
    <path class="cls-1" d="M28.17,104.42l-11.89,8.76-2.41-3.27,9.05-6.66-3.97-5.39,2.85-2.1,6.38,8.66Z"/>
    <path class="cls-1" d="M18.09,86.78c.4,1.11.56,2.13.48,3.06-.08.93-.35,1.76-.8,2.49-.46.73-1.06,1.36-1.8,1.9-.74.53-1.57.96-2.48,1.29l-7.14,2.57-1.37-3.82,7.13-2.57c.46-.17.88-.37,1.26-.61.38-.24.7-.52.96-.83.25-.31.42-.66.5-1.03.08-.37.04-.78-.12-1.23-.16-.46-.4-.81-.7-1.05-.3-.24-.65-.4-1.05-.47-.4-.07-.82-.07-1.27-.02-.45.06-.9.17-1.34.33l-7.13,2.57-1.37-3.82,7.13-2.57c.96-.35,1.91-.54,2.83-.59.93-.05,1.79.07,2.6.36.81.28,1.53.76,2.16,1.42.63.67,1.14,1.54,1.53,2.62Z"/>
    <path class="cls-1" d="M10.89,63.36c.89-.02,1.61.2,2.18.67.57.47.99,1.1,1.27,1.9.28.8.44,1.68.46,2.65l.17,7.26-14.77.35L0,67.62c-.02-.69.15-1.3.51-1.81s.82-.91,1.4-1.2c.58-.28,1.18-.43,1.8-.45.68-.02,1.34.15,1.99.48.65.34,1.14.86,1.47,1.56.23-.85.65-1.53,1.26-2.04.61-.51,1.43-.77,2.46-.8ZM3.56,72.05l2.27-.05-.06-2.77c0-.18-.04-.35-.11-.52-.07-.16-.18-.3-.35-.41-.17-.11-.4-.16-.71-.15-.28,0-.49.06-.65.15-.16.09-.27.21-.35.36-.07.15-.11.31-.1.49l.07,2.89ZM10.16,67.5c-.25,0-.47.06-.65.15-.18.09-.33.22-.44.37-.11.16-.16.34-.15.55l.08,3.35,2.47-.06-.07-3.2c0-.22-.06-.42-.16-.6-.1-.18-.24-.32-.43-.42s-.4-.15-.65-.14Z"/>
  </g>
  <g>
    <path class="cls-2" d="M68.18,112.86c-24.67,0-44.74-20.07-44.74-44.74s20.07-44.74,44.74-44.74,44.74,20.07,44.74,44.74-20.07,44.74-44.74,44.74ZM68.18,29.4c-21.35,0-38.72,17.37-38.72,38.72s17.37,38.72,38.72,38.72,38.72-17.37,38.72-38.72-17.37-38.72-38.72-38.72Z"/>
    <g>
      <path class="cls-2" d="M72.42,61.58c-1.04,2.25-2.49,4.34-3.94,6.05-2.51-3.14-5.13-7.53-5.07-11.85.05-4.32,2.76-8.63,5.37-11.72,1.38,1.72,2.76,3.81,3.74,6.05h6.43c-2.63-8.4-10.07-14.6-10.07-14.6,0,0-11.35,8.96-11.49,20.19-.14,11.23,10.98,20.48,10.98,20.48,0,0,7.74-6.13,10.51-14.6h-6.46Z"/>
      <path class="cls-2" d="M57.3,79.4c.86,2.33,1.31,4.83,1.49,7.06-3.99-.44-8.95-1.7-11.97-4.79-3.02-3.09-4.16-8.06-4.49-12.08,2.19.24,4.65.74,6.92,1.63l4.55-4.55c-7.8-4.08-17.44-3.2-17.44-3.2,0,0-1.69,14.36,6.15,22.4,7.84,8.04,22.24,6.71,22.24,6.71,0,0,1.14-9.81-2.89-17.75l-4.57,4.57Z"/>
      <path class="cls-2" d="M84.59,84.78c-2.3.92-4.8,1.43-7.02,1.67.34-4,1.48-8.99,4.5-12.08,3.02-3.09,7.95-4.35,11.97-4.79-.18,2.2-.62,4.66-1.46,6.96l4.66,4.44c3.89-7.9,2.77-17.52,2.77-17.52,0,0-14.4-1.33-22.25,6.7-7.85,8.04-6.16,22.4-6.16,22.4,0,0,9.83.9,17.68-3.33l-4.68-4.46Z"/>
    </g>
  </g>
</svg>
